<?xml version="1.0" encoding="UTF-8" standalone="no"?>
<!-- Created with Inkscape (http://www.inkscape.org/) -->

<svg
   xmlns:dc="http://purl.org/dc/elements/1.1/"
   xmlns:cc="http://creativecommons.org/ns#"
   xmlns:rdf="http://www.w3.org/1999/02/22-rdf-syntax-ns#"
   xmlns:svg="http://www.w3.org/2000/svg"
   xmlns="http://www.w3.org/2000/svg"
   xmlns:sodipodi="http://sodipodi.sourceforge.net/DTD/sodipodi-0.dtd"
   xmlns:inkscape="http://www.inkscape.org/namespaces/inkscape"
   width="220mm"
   height="70mm"
   viewBox="0 0 220 70"
   version="1.1"
   id="svg8"
   inkscape:version="0.92.1 r15371"
   sodipodi:docname="mylogo.svg">
  <defs
     id="defs2">
    <inkscape:path-effect
       effect="powerstroke"
       id="path-effect4582"
       is_visible="true"
       offset_points="0,0.13229166"
       sort_points="true"
       interpolator_type="CubicBezierJohan"
       interpolator_beta="0.2"
       start_linecap_type="zerowidth"
       linejoin_type="extrp_arc"
       miter_limit="4"
       end_linecap_type="zerowidth" />
    <inkscape:path-effect
       effect="bspline"
       id="path-effect4580"
       is_visible="true"
       weight="33.333333"
       steps="2"
       helper_size="0"
       apply_no_weight="true"
       apply_with_weight="true"
       only_selected="false" />
    <inkscape:path-effect
       effect="powerstroke"
       id="path-effect4566"
       is_visible="true"
       offset_points="0,0.13229166"
       sort_points="true"
       interpolator_type="CubicBezierJohan"
       interpolator_beta="0.2"
       start_linecap_type="zerowidth"
       linejoin_type="extrp_arc"
       miter_limit="4"
       end_linecap_type="zerowidth" />
    <inkscape:path-effect
       effect="bspline"
       id="path-effect4564"
       is_visible="true"
       weight="33.333333"
       steps="2"
       helper_size="0"
       apply_no_weight="true"
       apply_with_weight="true"
       only_selected="false" />
  </defs>
  <sodipodi:namedview
     id="base"
     pagecolor="#ffffff"
     bordercolor="#666666"
     borderopacity="1.0"
     inkscape:pageopacity="0.0"
     inkscape:pageshadow="2"
     inkscape:zoom="0.98994949"
     inkscape:cx="555.83637"
     inkscape:cy="189.34036"
     inkscape:document-units="mm"
     inkscape:current-layer="layer1"
     showgrid="false"
     inkscape:window-width="1811"
     inkscape:window-height="1057"
     inkscape:window-x="1181"
     inkscape:window-y="448"
     inkscape:window-maximized="1" />
  <metadata
     id="metadata5">
    <rdf:RDF>
      <cc:Work
         rdf:about="">
        <dc:format>image/svg+xml</dc:format>
        <dc:type
           rdf:resource="http://purl.org/dc/dcmitype/StillImage" />
        <dc:title></dc:title>
      </cc:Work>
    </rdf:RDF>
  </metadata>
  <g
     inkscape:label="Layer 1"
     inkscape:groupmode="layer"
     id="layer1"
     transform="translate(0,-227)">
    <text
       xml:space="preserve"
       style="font-style:normal;font-weight:normal;font-size:240.1869812px;line-height:1.25;font-family:sans-serif;letter-spacing:0px;word-spacing:0px;fill:#800080;fill-opacity:1;stroke:none;stroke-width:0.26458341"
       x="2251.8325"
       y="-4699.6421"
       id="text3690"
       transform="scale(0.93384292,1.0708439)"><tspan
         sodipodi:role="line"
         id="tspan3688"
         x="2251.8325"
         y="-4480.5122"
         style="fill:#800080;stroke-width:0.26458341" /></text>
    <g
       id="g4576"
       transform="matrix(0.18702412,0,0,0.27053414,94.103777,299.01767)"
       style="stroke-width:4.44569969">
      <path
         d="m -441.48537,-247.9746 v 202.824025 h 83.05358 v 22.627763 H -500.11143 V -247.9746 Z"
         style="font-style:normal;font-variant:normal;font-weight:normal;font-stretch:normal;font-size:320.24932861px;line-height:1.25;font-family:'Britannic Bold';-inkscape-font-specification:'Britannic Bold, Normal';font-variant-ligatures:normal;font-variant-caps:normal;font-variant-numeric:normal;font-feature-settings:normal;text-align:start;letter-spacing:0px;word-spacing:0px;writing-mode:lr-tb;text-anchor:start;fill:#800080;fill-opacity:1;stroke:none;stroke-width:1.17625844"
         id="path4529"
         inkscape:connector-curvature="0" />
      <path
         d="m -206.83309,-193.30462 v 170.781808 h -54.03664 v -26.591751 q -18.65375,29.729908 -47.96678,29.729908 -39.52817,0 -39.52817,-42.9432 V -189.01029 q 27.24039,-1.32134 54.03664,-4.29433 v 129.49027 q 0,16.846948 9.17882,16.846948 24.27949,0 24.27949,-58.138488 v -83.9044 q 27.09234,-1.32134 54.03664,-4.29433 z"
         style="font-style:normal;font-variant:normal;font-weight:normal;font-stretch:normal;font-size:320.24932861px;line-height:1.25;font-family:'Britannic Bold';-inkscape-font-specification:'Britannic Bold, Normal';font-variant-ligatures:normal;font-variant-caps:normal;font-variant-numeric:normal;font-feature-settings:normal;text-align:start;letter-spacing:0px;word-spacing:0px;writing-mode:lr-tb;text-anchor:start;fill:#800080;fill-opacity:1;stroke:none;stroke-width:1.17625844"
         id="path4531"
         inkscape:connector-curvature="0" />
      <path
         d="m -53.161773,-189.01029 -43.969543,66.56196 50.48355,99.925518 h -61.883054 l -27.98062,-54.50483 -35.97509,54.50483 h -20.72638 l 47.81873,-72.342775 -47.3746,-94.144703 h 62.17916 l 24.42752,48.39368 32.273943,-48.39368 z"
         style="font-style:normal;font-variant:normal;font-weight:normal;font-stretch:normal;font-size:320.24932861px;line-height:1.25;font-family:'Britannic Bold';-inkscape-font-specification:'Britannic Bold, Normal';font-variant-ligatures:normal;font-variant-caps:normal;font-variant-numeric:normal;font-feature-settings:normal;text-align:start;letter-spacing:0px;word-spacing:0px;writing-mode:lr-tb;text-anchor:start;fill:#800080;fill-opacity:1;stroke:none;stroke-width:1.17625844"
         id="path4533"
         inkscape:connector-curvature="0" />
      <path
         d="m 64.386443,-156.96805 33.458309,60.450802 q 15.248698,-27.417582 21.466608,-71.186612 l 0.74023,-5.12015 h 15.98893 q 0,46.08135 -28.57281,93.979539 l 32.27394,56.982324 H 79.931231 l -8.290553,-14.864954 q -22.058795,19.654772 -46.338273,19.654772 -27.8325726,0 -47.374591,-19.819939 -19.54202,-19.985104 -19.54202,-48.228516 0,-38.483706 50.7796407,-64.414806 -17.1732895,-28.2434 -17.1732895,-47.23751 0,-23.78393 15.8408791,-39.14438 15.8408787,-15.36045 40.2684037,-15.36045 44.561725,0 44.561725,44.09936 0,32.7029 -28.27671,50.21052 z m -46.338272,23.78392 Q 2.799474,-124.1 2.799474,-106.75755 q 0,20.810935 14.064332,43.108366 14.212377,22.29743 27.388435,22.29743 9.178828,0 18.20961,-12.057128 z m 37.899673,-39.14439 q 18.061564,-11.2313 18.061564,-31.54673 0,-29.39957 -22.502932,-29.39957 -15.100651,0 -15.100651,17.5076 0,8.58865 5.329642,18.33345 z"
         style="font-style:normal;font-variant:normal;font-weight:normal;font-stretch:normal;font-size:320.24932861px;line-height:1.25;font-family:'Britannic Bold';-inkscape-font-specification:'Britannic Bold, Normal';font-variant-ligatures:normal;font-variant-caps:normal;font-variant-numeric:normal;font-feature-settings:normal;text-align:start;letter-spacing:0px;word-spacing:0px;writing-mode:lr-tb;text-anchor:start;fill:#ff0000;fill-opacity:1;stroke:none;stroke-width:1.17625844"
         id="path4535"
         inkscape:connector-curvature="0" />
      <path
         d="m 293.11689,-247.9746 v 22.62775 h -73.28257 v 75.15061 h 62.17915 v 22.62776 H 219.83432 V -22.522812 H 161.20826 V -247.9746 Z"
         style="font-style:normal;font-variant:normal;font-weight:normal;font-stretch:normal;font-size:320.24932861px;line-height:1.25;font-family:'Britannic Bold';-inkscape-font-specification:'Britannic Bold, Normal';font-variant-ligatures:normal;font-variant-caps:normal;font-variant-numeric:normal;font-feature-settings:normal;text-align:start;letter-spacing:0px;word-spacing:0px;writing-mode:lr-tb;text-anchor:start;fill:#800080;fill-opacity:1;stroke:none;stroke-width:1.17625844"
         id="path4537"
         inkscape:connector-curvature="0" />
      <path
         d="m 461.00057,-28.468794 q -19.8381,8.58864 -38.6399,8.58864 -27.83257,0 -34.34658,-19.324439 -13.47215,20.15027 -38.78795,20.15027 -47.22654,0 -47.22654,-48.889181 0,-37.162386 43.22932,-52.192506 39.67621,-13.87395 39.67621,-33.36356 0,-25.60076 -22.79902,-25.60076 -26.35212,0 -26.35212,24.77493 0,7.7628 4.14528,20.4806 l -26.79625,-5.78081 q -1.03632,-7.76281 -1.03632,-14.53463 0,-39.63987 64.84397,-39.63987 61.58697,0 61.58697,36.99722 v 101.081681 q 0,15.525618 9.03078,15.525618 2.81287,0 8.29056,-3.468488 z M 384.461,-122.6135 q -5.03355,6.44148 -11.6956,10.7358 -16.72916,10.90097 -16.72916,36.666886 0,33.033229 11.54756,33.033229 16.8772,0 16.8772,-32.702898 z"
         style="font-style:normal;font-variant:normal;font-weight:normal;font-stretch:normal;font-size:320.24932861px;line-height:1.25;font-family:'Britannic Bold';-inkscape-font-specification:'Britannic Bold, Normal';font-variant-ligatures:normal;font-variant-caps:normal;font-variant-numeric:normal;font-feature-settings:normal;text-align:start;letter-spacing:0px;word-spacing:0px;writing-mode:lr-tb;text-anchor:start;fill:#800080;fill-opacity:1;stroke:none;stroke-width:1.17625844"
         id="path4539"
         inkscape:connector-curvature="0" />
      <path
         d="m 498.90023,-253.59025 q 25.16776,0 25.16776,21.80193 0,21.80193 -25.16776,21.80193 -25.16774,0 -25.16774,-21.80193 0,-21.80193 25.16774,-21.80193 z M 471.5118,-22.522812 V -188.84513 q 25.3158,0 54.03665,-4.45949 v 170.781808 z"
         style="font-style:normal;font-variant:normal;font-weight:normal;font-stretch:normal;font-size:320.24932861px;line-height:1.25;font-family:'Britannic Bold';-inkscape-font-specification:'Britannic Bold, Normal';font-variant-ligatures:normal;font-variant-caps:normal;font-variant-numeric:normal;font-feature-settings:normal;text-align:start;letter-spacing:0px;word-spacing:0px;writing-mode:lr-tb;text-anchor:start;fill:#800080;fill-opacity:1;stroke:none;stroke-width:1.17625844"
         id="path4541"
         inkscape:connector-curvature="0" />
      <path
         d="M 663.52701,-128.55949 H 626.5156 q 1.9246,-9.7448 3.40505,-14.36945 2.07265,-6.77181 2.07265,-12.2223 0,-10.57063 -6.8101,-10.57063 -5.1816,0 -9.91906,14.03913 -4.73746,13.87396 -4.73746,29.39957 v 99.760358 H 556.49004 V -189.01029 l 10.51123,0.16516 q 18.65375,0 43.52541,-4.45949 v 27.41759 q 13.17606,-27.41759 32.27394,-27.41759 26.05603,0 26.05603,32.04224 0,8.42348 -2.51678,19.32444 -0.88827,4.45949 -2.81286,13.37845 z"
         style="font-style:normal;font-variant:normal;font-weight:normal;font-stretch:normal;font-size:320.24932861px;line-height:1.25;font-family:'Britannic Bold';-inkscape-font-specification:'Britannic Bold, Normal';font-variant-ligatures:normal;font-variant-caps:normal;font-variant-numeric:normal;font-feature-settings:normal;text-align:start;letter-spacing:0px;word-spacing:0px;writing-mode:lr-tb;text-anchor:start;fill:#800080;fill-opacity:1;stroke:none;stroke-width:1.17625844"
         id="path4543"
         inkscape:connector-curvature="0" />
    </g>
    <flowRoot
       xml:space="preserve"
       id="flowRoot3712"
       style="font-style:normal;font-weight:normal;font-size:40px;line-height:1.25;font-family:sans-serif;letter-spacing:0px;word-spacing:0px;fill:#800080;fill-opacity:1;stroke:none;stroke-width:0.16653691"
       transform="matrix(5.607423,0,0,6.4300695,7662.2176,-3321.8522)"><flowRegion
         id="flowRegion3714"
         style="fill:#800080;stroke-width:0.16653691"><rect
           id="rect3716"
           width="931.42859"
           height="148.57143"
           x="885.71429"
           y="-1494.6232"
           style="fill:#800080;stroke-width:0.16653691" /></flowRegion><flowPara
         id="flowPara3718"
         style="fill:#800080;stroke-width:0.16653691"></flowPara></flowRoot>  </g>
</svg>
